{
  "accessors": [
    {
      "bufferView": 2,
      "componentType": 5126,
      "count": 4,
      "max": [
        72.90570068359375,
        72.22879791259766,
        5.386300086975098
      ],
      "min": [
        -72.90570068359375,
        -72.22879791259766,
        5.386300086975098
      ],
      "type": "VEC3"
    },
    {
      "bufferView": 2,
      "byteOffset": 48,
      "componentType": 5126,
      "count": 4,
      "max": [
        0.0,
        0.0,
        1.0
      ],
      "min": [
        0.0,
        0.0,
        1.0
      ],
      "type": "VEC3"
    },
    {
      "bufferView": 1,
      "componentType": 5126,
      "count": 4,
      "max": [
        1.0,
        1.0
      ],
      "min": [
        0.0,
        0.0
      ],
      "type": "VEC2"
    },
    {
      "bufferView": 0,
      "componentType": 5125,
      "count": 6,
      "type": "SCALAR"
    },
    {
      "bufferView": 2,
      "byteOffset": 96,
      "componentType": 5126,
      "count": 9586,
      "max": [
        71.61009979248047,
        71.55889892578125,
        49.62329864501953
      ],
      "min": [
        -70.87899780273438,
        37.84000015258789,
        5.338500022888184
      ],
      "type": "VEC3"
    },
    {
      "bufferView": 2,
      "byteOffset": 115128,
      "componentType": 5126,
      "count": 9586,
      "max": [
        1.0,
        1.0,
        1.0
      ],
      "min": [
        -1.0,
        -1.0,
        -1.0
      ],
      "type": "VEC3"
    },
    {
      "bufferView": 1,
      "byteOffset": 32,
      "componentType": 5126,
      "count": 9586,
      "max": [
        1.0,
        1.756500005722046
      ],
      "min": [
        0.0,
        -0.7565000057220459
      ],
      "type": "VEC2"
    },
    {
      "bufferView": 0,
      "byteOffset": 24,
      "componentType": 5125,
      "count": 51720,
      "type": "SCALAR"
    },
    {
      "bufferView": 2,
      "byteOffset": 230160,
      "componentType": 5126,
      "count": 9523,
      "max": [
        70.9198989868164,
        72.36859893798828,
        49.62329864501953
      ],
      "min": [
        -69.6854019165039,
        38.49530029296875,
        5.413300037384033
      ],
      "type": "VEC3"
    },
    {
      "bufferView": 2,
      "byteOffset": 344436,
      "componentType": 5126,
      "count": 9523,
      "max": [
        1.0,
        0.9999871253967285,
        1.0
      ],
      "min": [
        -1.0,
        -0.9999987483024597,
        -1.0
      ],
      "type": "VEC3"
    },
    {
      "bufferView": 1,
      "byteOffset": 76720,
      "componentType": 5126,
      "count": 9523,
      "max": [
        1.0,
        1.756500005722046
      ],
      "min": [
        -0.0,
        -0.6886000037193298
      ],
      "type": "VEC2"
    },
    {
      "bufferView": 0,
      "byteOffset": 206904,
      "componentType": 5125,
      "count": 48489,
      "type": "SCALAR"
    },
    {
      "bufferView": 2,
      "byteOffset": 458712,
      "componentType": 5126,
      "count": 1176,
      "max": [
        69.8644027709961,
        72.30570220947266,
        37.52980041503906
      ],
      "min": [
        -70.18879699707031,
        54.24319839477539,
        6.387599945068359
      ],
      "type": "VEC3"
    },
    {
      "bufferView": 2,
      "byteOffset": 472824,
      "componentType": 5126,
      "count": 1176,
      "max": [
        1.0,
        0.999987006187439,
        1.0
      ],
      "min": [
        -1.0,
        -0.9999871850013733,
        -1.0
      ],
      "type": "VEC3"
    },
    {
      "bufferView": 1,
      "byteOffset": 152904,
      "componentType": 5126,
      "count": 1176,
      "max": [
        1.0,
        1.0
      ],
      "min": [
        0.0035000001080334187,
        0.09700000286102295
      ],
      "type": "VEC2"
    },
    {
      "bufferView": 0,
      "byteOffset": 400860,
      "componentType": 5125,
      "count": 4440,
      "type": "SCALAR"
    },
    {
      "bufferView": 2,
      "byteOffset": 486936,
      "componentType": 5126,
      "count": 9660,
      "max": [
        71.56269836425781,
        -38.36330032348633,
        48.369300842285156
      ],
      "min": [
        -71.0198974609375,
        -71.56060028076172,
        5.152699947357178
      ],
      "type": "VEC3"
    },
    {
      "bufferView": 2,
      "byteOffset": 602856,
      "componentType": 5126,
      "count": 9660,
      "max": [
        1.0,
        1.0,
        1.0
      ],
      "min": [
        -1.0,
        -1.0,
        -1.0
      ],
      "type": "VEC3"
    },
    {
      "bufferView": 1,
      "byteOffset": 162312,
      "componentType": 5126,
      "count": 9660,
      "max": [
        1.0,
        1.756500005722046
      ],
      "min": [
        0.0,
        -0.7565000057220459
      ],
      "type": "VEC2"
    },
    {
      "bufferView": 0,
      "byteOffset": 418620,
      "componentType": 5125,
      "count": 51846,
      "type": "SCALAR"
    },
    {
      "bufferView": 2,
      "byteOffset": 718776,
      "componentType": 5126,
      "count": 9388,
      "max": [
        70.87249755859375,
        -39.027198791503906,
        48.369300842285156
      ],
      "min": [
        -70.30799865722656,
        -72.46640014648438,
        5.413400173187256
      ],
      "type": "VEC3"
    },
    {
      "bufferView": 2,
      "byteOffset": 831432,
      "componentType": 5126,
      "count": 9388,
      "max": [
        1.0,
        0.9999988675117493,
        1.0
      ],
      "min": [
        -1.0,
        -0.9999872446060181,
        -1.0
      ],
      "type": "VEC3"
    },
    {
      "bufferView": 1,
      "byteOffset": 239592,
      "componentType": 5126,
      "count": 9388,
      "max": [
        1.0,
        1.756500005722046
      ],
      "min": [
        -0.0,
        -0.6886000037193298
      ],
      "type": "VEC2"
    },
    {
      "bufferView": 0,
      "byteOffset": 626004,
      "componentType": 5125,
      "count": 48396,
      "type": "SCALAR"
    },
    {
      "bufferView": 2,
      "byteOffset": 944088,
      "componentType": 5126,
      "count": 1192,
      "max": [
        69.81710052490234,
        -53.89080047607422,
        37.52980041503906
      ],
      "min": [
        -70.32959747314453,
        -72.40350341796875,
        6.38730001449585
      ],
      "type": "VEC3"
    },
    {
      "bufferView": 2,
      "byteOffset": 958392,
      "componentType": 5126,
      "count": 1192,
      "max": [
        1.0,
        0.9999870657920837,
        1.0
      ],
      "min": [
        -1.0,
        -0.9999873042106628,
        -1.0
      ],
      "type": "VEC3"
    },
    {
      "bufferView": 1,
      "byteOffset": 314696,
      "componentType": 5126,
      "count": 1192,
      "max": [
        1.0,
        0.9352999925613403
      ],
      "min": [
        0.0035000001080334187,
        0.09700000286102295
      ],
      "type": "VEC2"
    },
    {
      "bufferView": 0,
      "byteOffset": 819588,
      "componentType": 5125,
      "count": 4440,
      "type": "SCALAR"
    },
    {
      "bufferView": 2,
      "byteOffset": 972696,
      "componentType": 5126,
      "count": 48,
      "max": [
        79.43669891357422,
        79.83830261230469,
        6.006400108337402
      ],
      "min": [
        -79.43669891357422,
        -79.83830261230469,
        0.0
      ],
      "type": "VEC3"
    },
    {
      "bufferView": 2,
      "byteOffset": 973272,
      "componentType": 5126,
      "count": 48,
      "max": [
        1.0,
        1.0,
        1.0
      ],
      "min": [
        -1.0,
        -1.0,
        -1.0
      ],
      "type": "VEC3"
    },
    {
      "bufferView": 1,
      "byteOffset": 324232,
      "componentType": 5126,
      "count": 48,
      "max": [
        0.6678000092506409,
        0.6945000290870667
      ],
      "min": [
        0.33219999074935913,
        0.30550000071525574
      ],
      "type": "VEC2"
    },
    {
      "bufferView": 0,
      "byteOffset": 837348,
      "componentType": 5125,
      "count": 84,
      "type": "SCALAR"
    }
  ],
  "asset": {
    "extras": {
      "author": "LucSales (https://sketchfab.com/LucSales)",
      "license": "CC-BY-4.0 (http://creativecommons.org/licenses/by/4.0/)",
      "source": "https://sketchfab.com/3d-models/xadrez-31829114c8d04475923a243348e6fc4b",
      "title": "Xadrez"
    },
    "generator": "Sketchfab-12.65.0",
    "version": "2.0"
  },
  "bufferViews": [
    {
      "buffer": 0,
      "byteLength": 837684,
      "name": "floatBufferViews",
      "target": 34963
    },
    {
      "buffer": 0,
      "byteLength": 324616,
      "byteOffset": 837684,
      "byteStride": 8,
      "name": "floatBufferViews",
      "target": 34962
    },
    {
      "buffer": 0,
      "byteLength": 973848,
      "byteOffset": 1162300,
      "byteStride": 12,
      "name": "floatBufferViews",
      "target": 34962
    }
  ],
  "buffers": [
    {
      "byteLength": 2136148,
      "uri": "scene.bin"
    }
  ],
  "images": [
    {
      "uri": "textures/02___Default_baseColor.png"
    },
    {
      "uri": "textures/03___Default_baseColor.png"
    },
    {
      "uri": "textures/07___Default_baseColor.png"
    },
    {
      "uri": "textures/Material__2_baseColor.jpeg"
    }
  ],
  "materials": [
    {
      "doubleSided": true,
      "emissiveTexture": {
        "index": 0
      },
      "name": "02___Default",
      "pbrMetallicRoughness": {
        "baseColorTexture": {
          "index": 0
        },
        "metallicFactor": 0.0
      }
    },
    {
      "doubleSided": true,
      "emissiveTexture": {
        "index": 1
      },
      "name": "03___Default",
      "pbrMetallicRoughness": {
        "baseColorTexture": {
          "index": 1
        },
        "metallicFactor": 0.0
      }
    },
    {
      "doubleSided": true,
      "emissiveTexture": {
        "index": 2
      },
      "name": "07___Default",
      "pbrMetallicRoughness": {
        "baseColorTexture": {
          "index": 2
        },
        "metallicFactor": 0.0
      }
    },
    {
      "doubleSided": true,
      "emissiveTexture": {
        "index": 3
      },
      "name": "Material__2",
      "pbrMetallicRoughness": {
        "baseColorTexture": {
          "index": 3
        },
        "metallicFactor": 0.0
      }
    }
  ],
  "meshes": [
    {
      "name": "Object_0",
      "primitives": [
        {
          "attributes": {
            "NORMAL": 1,
            "POSITION": 0,
            "TEXCOORD_0": 2
          },
          "indices": 3,
          "material": 3,
          "mode": 4
        }
      ]
    },
    {
      "name": "Object_1",
      "primitives": [
        {
          "attributes": {
            "NORMAL": 5,
            "POSITION": 4,
            "TEXCOORD_0": 6
          },
          "indices": 7,
          "material": 0,
          "mode": 4
        }
      ]
    },
    {
      "name": "Object_2",
      "primitives": [
        {
          "attributes": {
            "NORMAL": 9,
            "POSITION": 8,
            "TEXCOORD_0": 10
          },
          "indices": 11,
          "material": 0,
          "mode": 4
        }
      ]
    },
    {
      "name": "Object_3",
      "primitives": [
        {
          "attributes": {
            "NORMAL": 13,
            "POSITION": 12,
            "TEXCOORD_0": 14
          },
          "indices": 15,
          "material": 0,
          "mode": 4
        }
      ]
    },
    {
      "name": "Object_4",
      "primitives": [
        {
          "attributes": {
            "NORMAL": 17,
            "POSITION": 16,
            "TEXCOORD_0": 18
          },
          "indices": 19,
          "material": 1,
          "mode": 4
        }
      ]
    },
    {
      "name": "Object_5",
      "primitives": [
        {
          "attributes": {
            "NORMAL": 21,
            "POSITION": 20,
            "TEXCOORD_0": 22
          },
          "indices": 23,
          "material": 1,
          "mode": 4
        }
      ]
    },
    {
      "name": "Object_6",
      "primitives": [
        {
          "attributes": {
            "NORMAL": 25,
            "POSITION": 24,
            "TEXCOORD_0": 26
          },
          "indices": 27,
          "material": 1,
          "mode": 4
        }
      ]
    },
    {
      "name": "Object_7",
      "primitives": [
        {
          "attributes": {
            "NORMAL": 29,
            "POSITION": 28,
            "TEXCOORD_0": 30
          },
          "indices": 31,
          "material": 2,
          "mode": 4
        }
      ]
    }
  ],
  "nodes": [
    {
      "children": [
        1
      ],
      "matrix": [
        1.0,
        0.0,
        0.0,
        0.0,
        0.0,
        2.220446049250313e-16,
        -1.0,
        0.0,
        0.0,
        1.0,
        2.220446049250313e-16,
        0.0,
        0.0,
        0.0,
        0.0,
        1.0
      ],
      "name": "Sketchfab_model"
    },
    {
      "children": [
        2,
        3,
        4,
        5,
        6,
        7,
        8,
        9
      ],
      "name": "xaderz.obj.cleaner.materialmerger.gles"
    },
    {
      "mesh": 0,
      "name": "Object_2"
    },
    {
      "mesh": 1,
      "name": "Object_3"
    },
    {
      "mesh": 2,
      "name": "Object_4"
    },
    {
      "mesh": 3,
      "name": "Object_5"
    },
    {
      "mesh": 4,
      "name": "Object_6"
    },
    {
      "mesh": 5,
      "name": "Object_7"
    },
    {
      "mesh": 6,
      "name": "Object_8"
    },
    {
      "mesh": 7,
      "name": "Object_9"
    }
  ],
  "samplers": [
    {
      "magFilter": 9729,
      "minFilter": 9987,
      "wrapS": 10497,
      "wrapT": 10497
    }
  ],
  "scene": 0,
  "scenes": [
    {
      "name": "Sketchfab_Scene",
      "nodes": [
        0
      ]
    }
  ],
  "textures": [
    {
      "sampler": 0,
      "source": 0
    },
    {
      "sampler": 0,
      "source": 1
    },
    {
      "sampler": 0,
      "source": 2
    },
    {
      "sampler": 0,
      "source": 3
    }
  ]
}
